<?xml version="1.0" encoding="UTF-8"?>
<!DOCTYPE svg PUBLIC "-//W3C//DTD SVG 1.1//EN" "http://www.w3.org/Graphics/SVG/1.1/DTD/svg11.dtd">
<svg version="1.1" xmlns="http://www.w3.org/2000/svg" xmlns:xlink="http://www.w3.org/1999/xlink" x="0" y="0" width="104" height="84" viewBox="0, 0, 104, 84">
  <g id="Ebene_1" transform="translate(-145.667, -12.833)">
    <g>
      <path d="M148.167,15.333 L248.167,15.333 L248.167,95.333 L148.167,95.333 L148.167,15.333 z" fill="#DEF3FB"/>
      <path d="M148.167,15.333 L248.167,15.333 L248.167,95.333 L148.167,95.333 L148.167,15.333 z" fill-opacity="0" stroke="#5E6A71" stroke-width="3" stroke-linejoin="round"/>
    </g>
    <g>
      <path d="M163.167,30.333 L233.167,30.333 L233.167,80.333 L163.167,80.333 L163.167,30.333 z" fill="#FFFFFF"/>
      <path d="M163.167,30.333 L233.167,30.333 L233.167,80.333 L163.167,80.333 L163.167,30.333 z" fill-opacity="0" stroke="#5E6A71" stroke-width="3" stroke-linejoin="round"/>
    </g>
    <path d="M175.167,55.333 L185.667,55.333" fill-opacity="0" stroke="#5E6A71" stroke-width="3"/>
    <path d="M206.833,55.333 L221.167,55.333" fill-opacity="0" stroke="#5E6A71" stroke-width="3"/>
    <path d="M191,55.333 L201.5,55.333" fill-opacity="0" stroke="#5E6A71" stroke-width="3"/>
    <path d="M186.667,55.333 L190,55.333" fill-opacity="0" stroke="#5E6A71" stroke-width="1"/>
    <path d="M202.5,55.333 L205.833,55.333" fill-opacity="0" stroke="#5E6A71" stroke-width="1"/>
  </g>
</svg>
